<svg width="22" height="20" viewBox="0 0 22 20" fill="none" xmlns="http://www.w3.org/2000/svg">
<path d="M7.74996 0.166626L5.76746 2.33329H2.33329C1.14163 2.33329 0.166626 3.30829 0.166626 4.49996V17.5C0.166626 18.6916 1.14163 19.6666 2.33329 19.6666H19.6666C20.8583 19.6666 21.8333 18.6916 21.8333 17.5V4.49996C21.8333 3.30829 20.8583 2.33329 19.6666 2.33329H16.2325L14.25 0.166626H7.74996ZM11 16.4166C8.00996 16.4166 5.58329 13.99 5.58329 11C5.58329 8.00996 8.00996 5.58329 11 5.58329C13.99 5.58329 16.4166 8.00996 16.4166 11C16.4166 13.99 13.99 16.4166 11 16.4166Z" fill="white"/>
</svg>
